<?xml version="1.0" encoding="UTF-8"?>
<svg id="Layer_2" data-name="Layer 2" xmlns="http://www.w3.org/2000/svg" viewBox="0 0 443 443">
  <defs>
    <style>
      .cls-1 {
        fill: #fff;
        stroke-width: 0px;
      }

      .cls-2 {
        stroke: #ee4949;
        stroke-miterlimit: 10;
        stroke-width: 11px;
      }

      .cls-2, .cls-3, .cls-4 {
        fill: none;
        stroke-linecap: round;
      }

      .cls-3 {
        stroke: #023662;
      }

      .cls-3, .cls-4 {
        stroke-linejoin: round;
        stroke-width: 29px;
      }

      .cls-4 {
        stroke: #247147;
      }
    </style>
  </defs>
  <g id="Layer_1-2" data-name="Layer 1">
    <g>
      <circle class="cls-1" cx="221.5" cy="221.5" r="221.5"/>
      <g>
        <g>
          <g>
            <path class="cls-2" d="m85.76,206.21s6.66-1,15.66,0,14.79,11.5,14.79,11.5l18.21,24.5,21,14s21,14,34,29c13,15,10,32.37,10,32.37l-6,35.1v22.53"/>
            <path class="cls-2" d="m128.42,277.21l-31-30-14-50v-31.37s4.68-27.63-22-27.63c-1,0-5.34,54.83-5.34,54.83"/>
            <path class="cls-2" d="m126.42,376.21v-36.37s-1-15.63-15-28.63-44-42-44-42c0,0-6-4-7-19s-4.34-58.05-4.34-58.05"/>
          </g>
          <g>
            <path class="cls-2" d="m357.24,206.21s-6.66-1-15.66,0-14.79,11.5-14.79,11.5l-18.21,24.5-21,14s-21,14-34,29c-13,15-10,32.37-10,32.37l6,35.1v22.53"/>
            <path class="cls-2" d="m314.58,277.21l31-30,14-50v-31.37s-4.68-27.63,22-27.63c1,0,5.34,54.83,5.34,54.83"/>
            <path class="cls-2" d="m316.58,376.21v-36.37s1-15.63,15-28.63c14-13,44-42,44-42,0,0,6-4,7-19,1-15,4.34-58.05,4.34-58.05"/>
          </g>
        </g>
        <g>
          <path class="cls-4" d="m206.02,109.35c-51.29-43.4-78.02-29.57-91.73-4.93-16.51,29.68-4.93,97.65,91.73,119.35"/>
          <path class="cls-3" d="m236.98,109.35c58.54-49.54,81.44-23.43,91.73-4.93,16.51,29.68,4.93,97.65-91.73,119.35"/>
        </g>
      </g>
    </g>
  </g>
</svg>